<?xml version="1.0" encoding="iso-8859-1"?>
<!-- Generator: Adobe Illustrator 19.0.0, SVG Export Plug-In . SVG Version: 6.00 Build 0)  -->
<svg version="1.1" id="Capa_1" xmlns="http://www.w3.org/2000/svg" xmlns:xlink="http://www.w3.org/1999/xlink" x="0px" y="0px"
	 viewBox="0 0 512 512" style="enable-background:new 0 0 512 512;" xml:space="preserve">
<path style="fill:#999999;" d="M179.2,388.267h153.6v76.8H179.2V388.267z"/>
<path style="fill:#29ABE2;" d="M34.133,21.333h443.733c14.14,0,25.6,11.46,25.6,25.6V371.2c0,14.14-11.46,25.6-25.6,25.6H34.133
	c-14.14,0-25.6-11.46-25.6-25.6V46.933C8.533,32.794,19.994,21.333,34.133,21.333z"/>
<g>
	<path style="fill:#CCCCCC;" d="M136.533,456.533h238.933c9.429,0,17.067,7.637,17.067,17.067c0,9.429-7.637,17.067-17.067,17.067
		H136.533c-9.429,0-17.067-7.637-17.067-17.067C119.467,464.171,127.104,456.533,136.533,456.533z"/>
	<path style="fill:#CCCCCC;" d="M8.533,345.6h494.933v25.6c0,14.14-11.46,25.6-25.6,25.6H34.133c-14.14,0-25.6-11.46-25.6-25.6
		V345.6z"/>
</g>
<path style="fill:#E6E6E6;" d="M85.333,106.667h8.533v68.267h-8.533c-18.85,0-34.133-15.283-34.133-34.133
	S66.483,106.667,85.333,106.667z"/>
<path style="fill:#DA4836;" d="M102.4,89.6h51.2V192h-51.2c-4.71,0-8.533-3.823-8.533-8.533V98.133
	C93.867,93.423,97.69,89.6,102.4,89.6z"/>
<g>
	<path style="fill:#E6E6E6;" d="M290.133,64v153.6L153.6,192V89.6L290.133,64z"/>
	<path style="fill:#E6E6E6;" d="M110.933,192H153.6v89.6c0,11.785-9.549,21.333-21.333,21.333c-11.785,0-21.333-9.549-21.333-21.333
		V192z"/>
</g>
<path style="fill:#DA4836;" d="M110.933,260.267H153.6V281.6c0,11.785-9.549,21.333-21.333,21.333
	c-11.785,0-21.333-9.549-21.333-21.333V260.267z"/>
<path d="M477.867,12.8H34.133C15.283,12.8,0,28.083,0,46.933V371.2c0,18.85,15.283,34.133,34.133,34.133h136.533V448h-34.133
	c-14.14,0-25.6,11.46-25.6,25.6c0,14.14,11.46,25.6,25.6,25.6h238.933c14.14,0,25.6-11.46,25.6-25.6c0-14.14-11.46-25.6-25.6-25.6
	h-34.133v-42.667h136.533c18.85,0,34.133-15.283,34.133-34.133V46.933C512,28.083,496.717,12.8,477.867,12.8z M34.133,29.867
	h443.733c9.429,0,17.067,7.637,17.067,17.067v290.133H17.067V46.933C17.067,37.504,24.704,29.867,34.133,29.867z M384,473.6
	c0,4.71-3.823,8.533-8.533,8.533H136.533c-4.71,0-8.533-3.823-8.533-8.533c0-4.71,3.823-8.533,8.533-8.533h238.933
	C380.177,465.067,384,468.89,384,473.6z M324.267,448H187.733v-42.667h136.533V448z M477.867,388.267H34.133
	c-9.429,0-17.067-7.637-17.067-17.067v-17.067h477.867V371.2C494.933,380.629,487.296,388.267,477.867,388.267z"/>
<path d="M85.333,183.467c0,9.429,7.637,17.067,17.067,17.067V281.6c0,16.495,13.372,29.867,29.867,29.867
	s29.867-13.372,29.867-29.867v-46.933h25.6c4.71,0,8.533-3.823,8.533-8.533v-17.459l92.297,17.306
	c0.521,0.102,1.041,0.154,1.57,0.154c4.71,0,8.533-3.823,8.533-8.533V64c-0.009-4.71-3.831-8.533-8.542-8.525
	c-0.521,0-1.05,0.051-1.562,0.145L152.832,81.067H102.4c-9.429,0-17.067,7.637-17.067,17.067c-23.561,0-42.667,19.106-42.667,42.667
	S61.773,183.467,85.333,183.467L85.333,183.467z M145.067,251.733h-25.6v-51.2h25.6V251.733z M132.267,294.4
	c-7.066,0-12.8-5.734-12.8-12.8v-12.8h25.6v12.8C145.067,288.666,139.332,294.4,132.267,294.4z M179.2,217.6h-17.067v-15.36
	l17.067,3.2V217.6z M281.6,207.36l-119.467-22.443V96.683l119.467-22.4V207.36z M102.4,98.133h42.667v85.333H102.4V98.133z
	 M85.333,115.2v51.2c-14.14,0-25.6-11.46-25.6-25.6C59.733,126.66,71.194,115.2,85.333,115.2z"/>
<path d="M324.267,115.2h145.067v17.067H324.267V115.2z"/>
<path d="M324.267,149.333H435.2V166.4H324.267V149.333z"/>
<path d="M384,81.067h85.333v17.067H384V81.067z"/>
<path d="M324.267,251.733h145.067V268.8H324.267V251.733z"/>
<path d="M324.267,285.867H435.2v17.067H324.267V285.867z"/>
<path d="M384,217.6h85.333v17.067H384V217.6z"/>
<path d="M349.867,217.6h17.067v17.067h-17.067V217.6z"/>
<path d="M349.867,81.067h17.067v17.067h-17.067V81.067z"/>
<g>
</g>
<g>
</g>
<g>
</g>
<g>
</g>
<g>
</g>
<g>
</g>
<g>
</g>
<g>
</g>
<g>
</g>
<g>
</g>
<g>
</g>
<g>
</g>
<g>
</g>
<g>
</g>
<g>
</g>
</svg>
